<svg xmlns="http://www.w3.org/2000/svg" viewBox="0 0 1870 544"><defs><style>.cls-1{fill:none;}.cls-2{fill:#fff;}.cls-3{fill:#000003;}.cls-4{fill:#cc5f29;}.cls-5{fill:#ff8c42;}.cls-6{fill:#ffe048;}.cls-7{fill:#ffb133;}.cls-8{fill:#b1c4c0;}</style></defs><g id="Layer_2" data-name="Layer 2"><g id="Layer_1-2" data-name="Layer 1"><rect class="cls-1" x="374" width="374" height="544"/><polygon class="cls-2" points="544 187 527 187 527 204 544 204 561 204 561 187 544 187"/><rect class="cls-2" x="476" y="187" width="17" height="17"/><polygon class="cls-3" points="646 17 629 17 612 17 612 34 629 34 646 34 663 34 663 17 646 17"/><polygon class="cls-3" points="493 17 476 17 459 17 459 34 476 34 493 34 510 34 510 17 493 17"/><rect class="cls-3" x="680" y="51" width="17" height="17"/><rect class="cls-3" x="425" y="51" width="17" height="17"/><rect class="cls-4" x="663" y="306" width="17" height="17"/><rect class="cls-4" x="442" y="306" width="17" height="17"/><polygon class="cls-4" points="646 153 646 170 629 170 612 170 595 170 578 170 561 170 544 170 527 170 527 187 544 187 561 187 578 187 595 187 612 187 629 187 646 187 663 187 663 170 663 153 646 153"/><polygon class="cls-4" points="493 170 476 170 476 187 493 187 510 187 510 170 493 170"/><polygon class="cls-2" points="595 17 578 17 561 17 544 17 527 17 510 17 510 34 510 51 527 51 544 51 561 51 578 51 595 51 612 51 612 34 612 17 595 17"/><rect class="cls-3" x="663" y="34" width="17" height="17"/><rect class="cls-3" x="442" y="34" width="17" height="17"/><polygon class="cls-2" points="544 136 527 136 527 153 544 153 561 153 561 136 544 136"/><polygon class="cls-5" points="714 136 714 153 714 170 731 170 731 153 731 136 714 136"/><polygon class="cls-4" points="680 136 680 153 680 170 697 170 697 153 697 136 680 136"/><polygon class="cls-6" points="629 136 612 136 595 136 578 136 561 136 561 153 544 153 527 153 527 170 544 170 561 170 578 170 595 170 612 170 629 170 646 170 646 153 646 136 629 136"/><polygon class="cls-5" points="391 136 391 153 391 170 408 170 408 153 408 136 391 136"/><polygon class="cls-4" points="425 136 425 153 425 170 442 170 442 153 442 136 425 136"/><rect class="cls-2" x="476" y="136" width="17" height="17"/><polygon class="cls-6" points="493 136 493 153 476 153 476 170 493 170 510 170 510 153 510 136 493 136"/><polygon class="cls-4" points="493 272 476 272 476 289 493 289 510 289 510 272 493 272"/><polygon class="cls-3" points="595 0 578 0 561 0 544 0 527 0 510 0 510 17 527 17 544 17 561 17 578 17 595 17 612 17 612 0 595 0"/><polygon class="cls-4" points="595 68 578 68 561 68 544 68 527 68 510 68 510 85 527 85 544 85 561 85 578 85 595 85 612 85 612 68 595 68"/><rect class="cls-3" x="697" y="68" width="17" height="17"/><rect class="cls-3" x="408" y="68" width="17" height="17"/><polygon class="cls-4" points="629 85 612 85 612 102 629 102 646 102 646 85 629 85"/><polygon class="cls-4" points="493 85 476 85 476 102 493 102 510 102 510 85 493 85"/><rect class="cls-4" x="663" y="119" width="17" height="17"/><rect class="cls-4" x="442" y="119" width="17" height="17"/><polygon class="cls-6" points="595 374 578 374 561 374 544 374 527 374 510 374 510 391 527 391 544 391 561 391 578 391 595 391 612 391 612 374 595 374"/><polygon class="cls-3" points="646 374 629 374 612 374 612 391 629 391 646 391 663 391 663 374 646 374"/><polygon class="cls-3" points="493 374 476 374 459 374 459 391 476 391 493 391 510 391 510 374 493 374"/><rect class="cls-3" x="680" y="340" width="17" height="17"/><polygon class="cls-4" points="629 340 612 340 612 357 629 357 646 357 646 340 629 340"/><rect class="cls-3" x="425" y="340" width="17" height="17"/><polygon class="cls-4" points="493 340 476 340 476 357 493 357 510 357 510 340 493 340"/><polygon class="cls-5" points="697 85 697 68 680 68 680 51 663 51 663 34 646 34 629 34 629 51 629 68 646 68 663 68 663 85 680 85 680 102 697 102 697 119 714 119 714 102 714 85 697 85"/><polygon class="cls-3" points="714 85 714 102 714 119 714 136 731 136 731 119 731 102 731 85 714 85"/><rect class="cls-4" x="646" y="102" width="17" height="17"/><polygon class="cls-3" points="391 85 391 102 391 119 391 136 408 136 408 119 408 102 408 85 391 85"/><polygon class="cls-5" points="476 34 459 34 459 51 442 51 442 68 425 68 425 85 408 85 408 102 408 119 425 119 425 102 442 102 442 85 459 85 459 68 476 68 493 68 493 51 493 34 476 34"/><rect class="cls-4" x="459" y="102" width="17" height="17"/><polygon class="cls-6" points="697 119 697 102 680 102 680 85 663 85 663 68 646 68 629 68 629 51 629 34 612 34 612 51 595 51 578 51 561 51 544 51 527 51 510 51 510 34 493 34 493 51 493 68 476 68 459 68 459 85 442 85 442 102 425 102 425 119 408 119 408 136 408 153 408 170 425 170 425 153 425 136 442 136 442 119 459 119 459 102 476 102 476 85 493 85 510 85 510 68 527 68 544 68 561 68 578 68 595 68 612 68 612 85 629 85 646 85 646 102 663 102 663 119 680 119 680 136 697 136 697 153 697 170 714 170 714 153 714 136 714 119 697 119"/><polygon class="cls-6" points="629 187 612 187 595 187 578 187 561 187 561 204 544 204 527 204 527 221 544 221 561 221 578 221 595 221 612 221 629 221 646 221 646 204 646 187 629 187"/><polygon class="cls-7" points="680 170 680 153 680 136 663 136 663 119 646 119 646 102 629 102 612 102 612 85 595 85 578 85 561 85 544 85 527 85 510 85 510 102 493 102 476 102 476 119 459 119 459 136 442 136 442 153 442 170 425 170 425 187 425 204 425 221 442 221 459 221 476 221 476 204 476 187 476 170 476 153 476 136 493 136 510 136 510 153 510 170 510 187 510 204 510 221 527 221 527 204 527 187 527 170 527 153 527 136 544 136 561 136 578 136 595 136 612 136 629 136 646 136 646 153 663 153 663 170 663 187 646 187 646 204 663 204 663 221 680 221 697 221 697 204 697 187 697 170 680 170"/><polygon class="cls-6" points="493 187 493 204 476 204 476 221 493 221 510 221 510 204 510 187 493 187"/><polygon class="cls-4" points="646 204 646 221 629 221 612 221 595 221 578 221 561 221 544 221 527 221 527 238 544 238 561 238 578 238 595 238 612 238 629 238 646 238 663 238 663 221 663 204 646 204"/><polygon class="cls-4" points="493 221 476 221 476 238 493 238 510 238 510 221 493 221"/><polygon class="cls-4" points="646 255 646 272 629 272 612 272 595 272 578 272 561 272 544 272 527 272 527 289 544 289 561 289 578 289 595 289 612 289 629 289 646 289 663 289 663 272 663 255 646 255"/><polygon class="cls-2" points="544 238 527 238 527 255 544 255 561 255 561 238 544 238"/><polygon class="cls-3" points="731 136 731 153 731 170 731 187 731 204 731 221 731 238 731 255 731 272 748 272 748 255 748 238 748 221 748 204 748 187 748 170 748 153 748 136 731 136"/><polygon class="cls-4" points="697 170 697 187 697 204 697 221 697 238 697 255 697 272 714 272 714 255 714 238 714 221 714 204 714 187 714 170 697 170"/><polygon class="cls-6" points="714 170 714 187 714 204 714 221 714 238 714 255 714 272 731 272 731 255 731 238 731 221 731 204 731 187 731 170 714 170"/><polygon class="cls-6" points="629 238 612 238 595 238 578 238 561 238 561 255 544 255 527 255 527 272 544 272 561 272 578 272 595 272 612 272 629 272 646 272 646 255 646 238 629 238"/><polygon class="cls-6" points="391 170 391 187 391 204 391 221 391 238 391 255 391 272 408 272 408 255 408 238 408 221 408 204 408 187 408 170 391 170"/><polygon class="cls-3" points="374 136 374 153 374 170 374 187 374 204 374 221 374 238 374 255 374 272 391 272 391 255 391 238 391 221 391 204 391 187 391 170 391 153 391 136 374 136"/><polygon class="cls-4" points="408 170 408 187 408 204 408 221 408 238 408 255 408 272 425 272 425 255 425 238 425 221 425 204 425 187 425 170 408 170"/><rect class="cls-2" x="476" y="238" width="17" height="17"/><polygon class="cls-6" points="493 238 493 255 476 255 476 272 493 272 510 272 510 255 510 238 493 238"/><polygon class="cls-3" points="714 272 714 289 714 306 714 323 731 323 731 306 731 289 731 272 714 272"/><polygon class="cls-4" points="680 272 680 289 680 306 697 306 697 289 697 272 680 272"/><polygon class="cls-3" points="391 272 391 289 391 306 391 323 408 323 408 306 408 289 408 272 391 272"/><polygon class="cls-4" points="425 272 425 289 425 306 442 306 442 289 442 272 425 272"/><polygon class="cls-4" points="595 357 578 357 561 357 544 357 527 357 510 357 510 374 527 374 544 374 561 374 578 374 595 374 612 374 612 357 595 357"/><rect class="cls-3" x="663" y="357" width="17" height="17"/><rect class="cls-3" x="442" y="357" width="17" height="17"/><rect class="cls-3" x="697" y="323" width="17" height="17"/><polygon class="cls-6" points="697 272 697 289 697 306 680 306 680 323 663 323 663 340 646 340 646 357 629 357 612 357 612 374 629 374 646 374 663 374 663 357 680 357 680 340 697 340 697 323 714 323 714 306 714 289 714 272 697 272"/><rect class="cls-4" x="646" y="323" width="17" height="17"/><rect class="cls-3" x="408" y="323" width="17" height="17"/><rect class="cls-4" x="459" y="323" width="17" height="17"/><polygon class="cls-6" points="493 357 476 357 476 340 459 340 459 323 442 323 442 306 425 306 425 289 425 272 408 272 408 289 408 306 408 323 425 323 425 340 442 340 442 357 459 357 459 374 476 374 493 374 510 374 510 357 493 357"/><polygon class="cls-5" points="680 221 663 221 663 238 646 238 646 255 663 255 663 272 663 289 646 289 629 289 612 289 595 289 578 289 561 289 544 289 527 289 527 272 527 255 527 238 527 221 510 221 510 238 510 255 510 272 510 289 493 289 476 289 476 272 476 255 476 238 476 221 459 221 442 221 425 221 425 238 425 255 425 272 442 272 442 289 442 306 459 306 459 323 476 323 476 340 493 340 510 340 510 357 527 357 544 357 561 357 578 357 595 357 612 357 612 340 629 340 646 340 646 323 663 323 663 306 680 306 680 289 680 272 697 272 697 255 697 238 697 221 680 221"/><polygon class="cls-3" points="595 391 578 391 561 391 544 391 527 391 510 391 510 408 527 408 544 408 561 408 578 408 595 408 612 408 612 391 595 391"/><polygon class="cls-8" points="714 442 697 442 680 442 663 442 646 442 629 442 612 442 595 442 578 442 561 442 544 442 527 442 510 442 493 442 476 442 459 442 442 442 425 442 408 442 391 442 391 459 391 476 391 493 408 493 425 493 442 493 459 493 476 493 493 493 510 493 527 493 544 493 561 493 578 493 595 493 612 493 629 493 646 493 663 493 680 493 697 493 714 493 731 493 731 476 731 459 731 442 714 442"/><rect class="cls-1" x="1496" width="374" height="544"/><rect class="cls-3" x="1751" y="34" width="17" height="17"/><polygon class="cls-6" points="1666 34 1649 34 1632 34 1632 51 1649 51 1666 51 1683 51 1683 34 1666 34"/><rect class="cls-3" x="1615" y="34" width="17" height="17"/><rect class="cls-2" x="1734" y="170" width="17" height="17"/><rect class="cls-2" x="1734" y="102" width="17" height="17"/><rect class="cls-2" x="1700" y="136" width="17" height="17"/><rect class="cls-5" x="1683" y="68" width="17" height="17"/><rect class="cls-4" x="1734" y="68" width="17" height="17"/><rect class="cls-6" x="1666" y="238" width="17" height="17"/><rect class="cls-2" x="1734" y="238" width="17" height="17"/><polygon class="cls-3" points="1700 0 1683 0 1666 0 1649 0 1649 17 1666 17 1683 17 1700 17 1717 17 1717 0 1700 0"/><rect class="cls-7" x="1683" y="204" width="17" height="17"/><rect class="cls-5" x="1666" y="204" width="17" height="17"/><rect class="cls-2" x="1700" y="204" width="17" height="17"/><rect class="cls-2" x="1700" y="272" width="17" height="17"/><polygon class="cls-3" points="1734 17 1717 17 1717 34 1734 34 1751 34 1751 17 1734 17"/><polygon class="cls-5" points="1700 17 1683 17 1666 17 1649 17 1649 34 1666 34 1683 34 1683 51 1700 51 1700 34 1717 34 1717 17 1700 17"/><rect class="cls-3" x="1632" y="17" width="17" height="17"/><polygon class="cls-3" points="1768 51 1768 68 1768 85 1785 85 1785 68 1785 51 1768 51"/><rect class="cls-7" x="1683" y="51" width="17" height="17"/><rect class="cls-4" x="1666" y="51" width="17" height="17"/><polygon class="cls-7" points="1751 51 1751 34 1734 34 1717 34 1700 34 1700 51 1717 51 1734 51 1734 68 1751 68 1751 85 1768 85 1768 68 1768 51 1751 51"/><polygon class="cls-5" points="1717 51 1700 51 1700 68 1717 68 1734 68 1734 51 1717 51"/><polygon class="cls-3" points="1598 51 1598 68 1598 85 1615 85 1615 68 1615 51 1598 51"/><polygon class="cls-4" points="1700 170 1683 170 1683 187 1683 204 1700 204 1700 187 1717 187 1717 170 1700 170"/><rect class="cls-6" x="1666" y="187" width="17" height="17"/><polygon class="cls-6" points="1717 170 1717 187 1717 204 1734 204 1734 187 1734 170 1717 170"/><rect class="cls-7" x="1700" y="187" width="17" height="17"/><rect class="cls-6" x="1666" y="306" width="17" height="17"/><rect class="cls-5" x="1717" y="306" width="17" height="17"/><polygon class="cls-4" points="1666 102 1666 119 1666 136 1666 153 1683 153 1683 136 1683 119 1683 102 1666 102"/><polygon class="cls-7" points="1649 102 1649 119 1649 136 1649 153 1666 153 1666 136 1666 119 1666 102 1649 102"/><polygon class="cls-6" points="1717 102 1717 119 1717 136 1734 136 1734 119 1734 102 1717 102"/><polygon class="cls-4" points="1632 102 1632 119 1632 136 1632 153 1649 153 1649 136 1649 119 1649 102 1632 102"/><polygon class="cls-6" points="1615 119 1598 119 1598 136 1581 136 1581 153 1598 153 1615 153 1632 153 1632 136 1632 119 1615 119"/><polygon class="cls-6" points="1666 374 1649 374 1649 391 1666 391 1683 391 1683 374 1666 374"/><rect class="cls-3" x="1717" y="374" width="17" height="17"/><polygon class="cls-7" points="1700 374 1683 374 1683 391 1700 391 1717 391 1717 374 1700 374"/><polygon class="cls-3" points="1632 374 1615 374 1615 391 1632 391 1649 391 1649 374 1632 374"/><polygon class="cls-7" points="1666 153 1666 170 1666 187 1683 187 1683 170 1683 153 1666 153"/><polygon class="cls-7" points="1734 136 1734 153 1734 170 1751 170 1751 153 1751 136 1734 136"/><polygon class="cls-4" points="1717 136 1717 153 1717 170 1734 170 1734 153 1734 136 1717 136"/><polygon class="cls-6" points="1700 153 1683 153 1683 170 1700 170 1717 170 1717 153 1700 153"/><polygon class="cls-4" points="1615 153 1615 170 1615 187 1632 187 1632 170 1632 153 1615 153"/><rect class="cls-4" x="1683" y="85" width="17" height="17"/><polygon class="cls-7" points="1666 68 1666 85 1666 102 1683 102 1683 85 1683 68 1666 68"/><polygon class="cls-4" points="1649 68 1649 85 1649 102 1666 102 1666 85 1666 68 1649 68"/><polygon class="cls-7" points="1734 85 1734 68 1717 68 1700 68 1700 85 1700 102 1683 102 1683 119 1683 136 1683 153 1700 153 1700 136 1717 136 1717 119 1717 102 1734 102 1751 102 1751 85 1734 85"/><polygon class="cls-2" points="1649 51 1632 51 1615 51 1615 68 1615 85 1598 85 1598 102 1598 119 1615 119 1632 119 1632 102 1649 102 1649 85 1649 68 1666 68 1666 51 1649 51"/><polygon class="cls-3" points="1581 85 1581 102 1581 119 1581 136 1598 136 1598 119 1598 102 1598 85 1581 85"/><rect class="cls-5" x="1632" y="340" width="17" height="17"/><polygon class="cls-7" points="1666 357 1666 340 1649 340 1649 357 1649 374 1666 374 1683 374 1683 357 1666 357"/><rect class="cls-3" x="1734" y="357" width="17" height="17"/><rect class="cls-7" x="1717" y="357" width="17" height="17"/><polygon class="cls-4" points="1700 357 1683 357 1683 374 1700 374 1717 374 1717 357 1700 357"/><rect class="cls-3" x="1598" y="357" width="17" height="17"/><polygon class="cls-8" points="1768 391 1768 374 1751 374 1734 374 1734 391 1717 391 1717 408 1700 408 1700 425 1683 425 1683 442 1666 442 1666 459 1649 459 1649 476 1632 476 1632 493 1615 493 1615 510 1598 510 1598 527 1615 527 1615 544 1632 544 1649 544 1649 527 1666 527 1666 510 1683 510 1683 493 1700 493 1700 476 1717 476 1717 459 1734 459 1734 442 1751 442 1751 425 1768 425 1768 408 1785 408 1785 391 1768 391"/><polygon class="cls-3" points="1700 391 1683 391 1666 391 1649 391 1649 408 1666 408 1683 408 1700 408 1717 408 1717 391 1700 391"/><polygon class="cls-4" points="1700 306 1683 306 1683 323 1683 340 1700 340 1700 323 1717 323 1717 306 1700 306"/><polygon class="cls-3" points="1751 323 1751 340 1751 357 1768 357 1768 340 1768 323 1751 323"/><polygon class="cls-7" points="1734 323 1734 340 1734 357 1751 357 1751 340 1751 323 1734 323"/><polygon class="cls-4" points="1717 323 1717 340 1717 357 1734 357 1734 340 1734 323 1717 323"/><polygon class="cls-5" points="1700 323 1700 340 1683 340 1683 323 1666 323 1666 340 1666 357 1683 357 1700 357 1717 357 1717 340 1717 323 1700 323"/><rect class="cls-5" x="1615" y="323" width="17" height="17"/><polygon class="cls-6" points="1632 357 1632 340 1615 340 1615 323 1598 323 1598 340 1598 357 1615 357 1615 374 1632 374 1649 374 1649 357 1632 357"/><polygon class="cls-3" points="1581 323 1581 340 1581 357 1598 357 1598 340 1598 323 1581 323"/><polygon class="cls-4" points="1700 238 1683 238 1683 255 1683 272 1700 272 1700 255 1717 255 1717 238 1700 238"/><polygon class="cls-6" points="1717 238 1717 255 1717 272 1734 272 1734 255 1734 238 1717 238"/><rect class="cls-5" x="1700" y="255" width="17" height="17"/><polygon class="cls-7" points="1768 85 1768 102 1768 119 1768 136 1768 153 1768 170 1768 187 1768 204 1768 221 1768 238 1768 255 1768 272 1785 272 1785 255 1785 238 1785 221 1785 204 1785 187 1785 170 1785 153 1785 136 1785 119 1785 102 1785 85 1768 85"/><polygon class="cls-3" points="1785 85 1785 102 1785 119 1785 136 1785 153 1785 170 1785 187 1785 204 1785 221 1785 238 1785 255 1785 272 1802 272 1802 255 1802 238 1802 221 1802 204 1802 187 1802 170 1802 153 1802 136 1802 119 1802 102 1802 85 1785 85"/><rect class="cls-7" x="1666" y="221" width="17" height="17"/><polygon class="cls-5" points="1734 204 1734 221 1734 238 1751 238 1751 221 1751 204 1734 204"/><polygon class="cls-4" points="1717 204 1717 221 1717 238 1734 238 1734 221 1734 204 1717 204"/><polygon class="cls-6" points="1700 221 1683 221 1683 238 1700 238 1717 238 1717 221 1700 221"/><polygon class="cls-3" points="1768 272 1768 289 1768 306 1768 323 1785 323 1785 306 1785 289 1785 272 1768 272"/><polygon class="cls-5" points="1683 272 1683 255 1666 255 1666 272 1666 289 1666 306 1683 306 1683 289 1700 289 1700 272 1683 272"/><polygon class="cls-4" points="1649 153 1649 170 1649 187 1649 204 1649 221 1649 238 1649 255 1649 272 1649 289 1649 306 1649 323 1649 340 1666 340 1666 323 1666 306 1666 289 1666 272 1666 255 1666 238 1666 221 1666 204 1666 187 1666 170 1666 153 1649 153"/><polygon class="cls-7" points="1751 272 1751 289 1751 306 1751 323 1768 323 1768 306 1768 289 1768 272 1751 272"/><polygon class="cls-4" points="1751 85 1751 102 1751 119 1734 119 1734 136 1751 136 1751 153 1751 170 1751 187 1734 187 1734 204 1751 204 1751 221 1751 238 1751 255 1734 255 1734 272 1717 272 1717 289 1717 306 1734 306 1734 323 1751 323 1751 306 1751 289 1751 272 1768 272 1768 255 1768 238 1768 221 1768 204 1768 187 1768 170 1768 153 1768 136 1768 119 1768 102 1768 85 1751 85"/><polygon class="cls-6" points="1700 289 1683 289 1683 306 1700 306 1717 306 1717 289 1700 289"/><polygon class="cls-3" points="1564 136 1564 153 1564 170 1564 187 1564 204 1564 221 1564 238 1564 255 1564 272 1564 289 1564 306 1564 323 1581 323 1581 306 1581 289 1581 272 1581 255 1581 238 1581 221 1581 204 1581 187 1581 170 1581 153 1581 136 1564 136"/><polygon class="cls-7" points="1632 153 1632 170 1632 187 1632 204 1632 221 1632 238 1632 255 1632 272 1632 289 1632 306 1632 323 1632 340 1649 340 1649 323 1649 306 1649 289 1649 272 1649 255 1649 238 1649 221 1649 204 1649 187 1649 170 1649 153 1632 153"/><polygon class="cls-4" points="1615 204 1615 221 1615 238 1615 255 1615 272 1615 289 1615 306 1615 323 1632 323 1632 306 1632 289 1632 272 1632 255 1632 238 1632 221 1632 204 1615 204"/><polygon class="cls-5" points="1615 187 1615 170 1615 153 1598 153 1581 153 1581 170 1581 187 1581 204 1581 221 1581 238 1581 255 1581 272 1581 289 1581 306 1581 323 1598 323 1615 323 1615 306 1615 289 1615 272 1615 255 1615 238 1615 221 1615 204 1632 204 1632 187 1615 187"/><rect class="cls-1" x="1122" width="374" height="544"/><polygon class="cls-6" points="1326 17 1309 17 1292 17 1275 17 1275 34 1275 51 1292 51 1309 51 1326 51 1326 34 1343 34 1343 17 1326 17"/><polygon class="cls-3" points="1326 0 1309 0 1292 0 1275 0 1275 17 1292 17 1309 17 1326 17 1343 17 1343 0 1326 0"/><polygon class="cls-5" points="1309 340 1292 340 1275 340 1275 357 1292 357 1309 357 1326 357 1326 340 1309 340"/><polygon class="cls-2" points="1326 34 1326 51 1309 51 1292 51 1275 51 1275 68 1275 85 1275 102 1292 102 1309 102 1326 102 1326 119 1326 136 1326 153 1326 170 1326 187 1343 187 1343 170 1343 153 1343 136 1343 119 1343 102 1343 85 1343 68 1343 51 1343 34 1326 34"/><polygon class="cls-6" points="1309 102 1292 102 1275 102 1275 119 1275 136 1275 153 1275 170 1275 187 1292 187 1309 187 1326 187 1326 170 1326 153 1326 136 1326 119 1326 102 1309 102"/><polygon class="cls-5" points="1309 187 1292 187 1275 187 1275 204 1275 221 1275 238 1275 255 1275 272 1275 289 1275 306 1275 323 1292 323 1309 323 1326 323 1326 306 1326 289 1326 272 1326 255 1326 238 1326 221 1326 204 1326 187 1309 187"/><polygon class="cls-3" points="1326 357 1309 357 1292 357 1275 357 1275 374 1292 374 1309 374 1326 374 1343 374 1343 357 1326 357"/><polygon class="cls-3" points="1258 17 1258 34 1258 51 1258 68 1258 85 1258 102 1258 119 1258 136 1258 153 1258 170 1258 187 1258 204 1258 221 1258 238 1258 255 1258 272 1258 289 1258 306 1258 323 1258 340 1258 357 1275 357 1275 340 1275 323 1275 306 1275 289 1275 272 1275 255 1275 238 1275 221 1275 204 1275 187 1275 170 1275 153 1275 136 1275 119 1275 102 1275 85 1275 68 1275 51 1275 34 1275 17 1258 17"/><polygon class="cls-3" points="1343 17 1343 34 1343 51 1343 68 1343 85 1343 102 1343 119 1343 136 1343 153 1343 170 1343 187 1343 204 1343 221 1343 238 1343 255 1343 272 1343 289 1343 306 1343 323 1343 340 1343 357 1360 357 1360 340 1360 323 1360 306 1360 289 1360 272 1360 255 1360 238 1360 221 1360 204 1360 187 1360 170 1360 153 1360 136 1360 119 1360 102 1360 85 1360 68 1360 51 1360 34 1360 17 1343 17"/><polygon class="cls-6" points="1326 187 1326 204 1326 221 1326 238 1326 255 1326 272 1326 289 1326 306 1326 323 1309 323 1292 323 1275 323 1275 340 1292 340 1309 340 1326 340 1326 357 1343 357 1343 340 1343 323 1343 306 1343 289 1343 272 1343 255 1343 238 1343 221 1343 204 1343 187 1326 187"/><polygon class="cls-8" points="1326 374 1309 374 1292 374 1275 374 1275 391 1275 408 1275 425 1275 442 1275 459 1275 476 1275 493 1275 510 1275 527 1292 527 1309 527 1326 527 1343 527 1343 510 1343 493 1343 476 1343 459 1343 442 1343 425 1343 408 1343 391 1343 374 1326 374"/><rect class="cls-1" x="748" width="374" height="544"/><polygon class="cls-6" points="918 153 901 153 901 170 918 170 935 170 935 153 918 153"/><rect class="cls-6" x="935" y="187" width="17" height="17"/><rect class="cls-7" x="901" y="187" width="17" height="17"/><polygon class="cls-3" points="884 17 867 17 867 34 884 34 901 34 901 17 884 17"/><rect class="cls-3" x="969" y="17" width="17" height="17"/><rect class="cls-4" x="935" y="51" width="17" height="17"/><rect class="cls-7" x="918" y="51" width="17" height="17"/><polygon class="cls-5" points="901 51 884 51 884 68 901 68 918 68 918 51 901 51"/><rect class="cls-5" x="884" y="306" width="17" height="17"/><rect class="cls-6" x="935" y="306" width="17" height="17"/><polygon class="cls-6" points="884 170 884 187 884 204 901 204 901 187 901 170 884 170"/><rect class="cls-2" x="867" y="170" width="17" height="17"/><polygon class="cls-4" points="986 153 986 170 986 187 1003 187 1003 170 1003 153 986 153"/><polygon class="cls-7" points="935 153 935 170 935 187 952 187 952 170 952 153 935 153"/><polygon class="cls-4" points="918 170 901 170 901 187 918 187 918 204 935 204 935 187 935 170 918 170"/><rect class="cls-3" x="850" y="34" width="17" height="17"/><rect class="cls-3" x="986" y="34" width="17" height="17"/><polygon class="cls-6" points="969 34 952 34 935 34 935 51 952 51 969 51 986 51 986 34 969 34"/><polygon class="cls-5" points="952 17 935 17 918 17 901 17 901 34 918 34 918 51 935 51 935 34 952 34 969 34 969 17 952 17"/><polygon class="cls-4" points="884 136 884 153 884 170 901 170 901 153 901 136 884 136"/><polygon class="cls-7" points="867 136 867 153 867 170 884 170 884 153 884 136 867 136"/><rect class="cls-2" x="901" y="136" width="17" height="17"/><rect class="cls-2" x="901" y="272" width="17" height="17"/><polygon class="cls-3" points="952 0 935 0 918 0 901 0 901 17 918 17 935 17 952 17 969 17 969 0 952 0"/><rect class="cls-4" x="867" y="68" width="17" height="17"/><polygon class="cls-7" points="901 34 884 34 867 34 867 51 850 51 850 68 850 85 867 85 867 68 884 68 884 51 901 51 918 51 918 34 901 34"/><polygon class="cls-3" points="833 51 833 68 833 85 850 85 850 68 850 51 833 51"/><polygon class="cls-3" points="1003 51 1003 68 1003 85 1020 85 1020 68 1020 51 1003 51"/><rect class="cls-7" x="935" y="68" width="17" height="17"/><rect class="cls-5" x="918" y="68" width="17" height="17"/><polygon class="cls-4" points="952 68 952 85 952 102 969 102 969 85 969 68 952 68"/><rect class="cls-7" x="935" y="85" width="17" height="17"/><rect class="cls-4" x="918" y="85" width="17" height="17"/><polygon class="cls-6" points="1020 136 1020 119 1003 119 986 119 986 136 986 153 1003 153 1020 153 1037 153 1037 136 1020 136"/><rect class="cls-3" x="884" y="374" width="17" height="17"/><polygon class="cls-3" points="986 374 969 374 969 391 986 391 1003 391 1003 374 986 374"/><polygon class="cls-6" points="952 374 935 374 935 391 952 391 969 391 969 374 952 374"/><polygon class="cls-7" points="918 374 901 374 901 391 918 391 935 391 935 374 918 374"/><rect class="cls-5" x="969" y="340" width="17" height="17"/><polygon class="cls-3" points="1020 85 1020 102 1020 119 1020 136 1037 136 1037 119 1037 102 1037 85 1020 85"/><polygon class="cls-6" points="884 102 884 119 884 136 901 136 901 119 901 102 884 102"/><rect class="cls-2" x="867" y="102" width="17" height="17"/><polygon class="cls-4" points="969 102 969 119 969 136 969 153 986 153 986 136 986 119 986 102 969 102"/><polygon class="cls-2" points="1003 85 1003 68 1003 51 986 51 969 51 952 51 952 68 969 68 969 85 969 102 986 102 986 119 1003 119 1020 119 1020 102 1020 85 1003 85"/><polygon class="cls-7" points="952 102 952 119 952 136 952 153 969 153 969 136 969 119 969 102 952 102"/><polygon class="cls-4" points="935 102 935 119 935 136 935 153 952 153 952 136 952 119 952 102 935 102"/><polygon class="cls-7" points="918 102 918 85 918 68 901 68 884 68 884 85 867 85 867 102 884 102 901 102 901 119 901 136 918 136 918 153 935 153 935 136 935 119 935 102 918 102"/><rect class="cls-5" x="935" y="204" width="17" height="17"/><rect class="cls-7" x="918" y="204" width="17" height="17"/><rect class="cls-2" x="901" y="204" width="17" height="17"/><polygon class="cls-4" points="884 204 884 221 884 238 901 238 901 221 901 204 884 204"/><polygon class="cls-5" points="867 204 867 221 867 238 884 238 884 221 884 204 867 204"/><rect class="cls-7" x="935" y="221" width="17" height="17"/><polygon class="cls-6" points="918 221 901 221 901 238 918 238 935 238 935 221 918 221"/><rect class="cls-5" x="901" y="255" width="17" height="17"/><polygon class="cls-6" points="884 238 884 255 884 272 901 272 901 255 901 238 884 238"/><rect class="cls-2" x="867" y="238" width="17" height="17"/><polygon class="cls-7" points="833 85 833 102 833 119 833 136 833 153 833 170 833 187 833 204 833 221 833 238 833 255 833 272 850 272 850 255 850 238 850 221 850 204 850 187 850 170 850 153 850 136 850 119 850 102 850 85 833 85"/><polygon class="cls-3" points="816 85 816 102 816 119 816 136 816 153 816 170 816 187 816 204 816 221 816 238 816 255 816 272 833 272 833 255 833 238 833 221 833 204 833 187 833 170 833 153 833 136 833 119 833 102 833 85 816 85"/><rect class="cls-6" x="935" y="238" width="17" height="17"/><polygon class="cls-4" points="918 238 901 238 901 255 918 255 918 272 935 272 935 255 935 238 918 238"/><polygon class="cls-3" points="1037 136 1037 153 1037 170 1037 187 1037 204 1037 221 1037 238 1037 255 1037 272 1037 289 1037 306 1037 323 1054 323 1054 306 1054 289 1054 272 1054 255 1054 238 1054 221 1054 204 1054 187 1054 170 1054 153 1054 136 1037 136"/><polygon class="cls-4" points="884 272 884 255 867 255 867 238 867 221 867 204 884 204 884 187 867 187 867 170 867 153 867 136 884 136 884 119 867 119 867 102 867 85 850 85 850 102 850 119 850 136 850 153 850 170 850 187 850 204 850 221 850 238 850 255 850 272 867 272 867 289 867 306 867 323 884 323 884 306 901 306 901 289 901 272 884 272"/><polygon class="cls-7" points="850 272 850 289 850 306 850 323 867 323 867 306 867 289 867 272 850 272"/><polygon class="cls-3" points="833 272 833 289 833 306 833 323 850 323 850 306 850 289 850 272 833 272"/><polygon class="cls-4" points="986 204 986 221 986 238 986 255 986 272 986 289 986 306 986 323 1003 323 1003 306 1003 289 1003 272 1003 255 1003 238 1003 221 1003 204 986 204"/><polygon class="cls-5" points="1020 153 1003 153 1003 170 1003 187 986 187 986 204 1003 204 1003 221 1003 238 1003 255 1003 272 1003 289 1003 306 1003 323 1020 323 1037 323 1037 306 1037 289 1037 272 1037 255 1037 238 1037 221 1037 204 1037 187 1037 170 1037 153 1020 153"/><polygon class="cls-5" points="935 255 935 272 918 272 918 289 935 289 935 306 952 306 952 289 952 272 952 255 935 255"/><polygon class="cls-6" points="918 289 901 289 901 306 918 306 935 306 935 289 918 289"/><rect class="cls-7" x="884" y="357" width="17" height="17"/><rect class="cls-3" x="867" y="357" width="17" height="17"/><rect class="cls-3" x="1003" y="357" width="17" height="17"/><polygon class="cls-7" points="952 340 952 357 935 357 935 374 952 374 969 374 969 357 969 340 952 340"/><polygon class="cls-4" points="918 357 901 357 901 374 918 374 935 374 935 357 918 357"/><polygon class="cls-3" points="1020 323 1020 340 1020 357 1037 357 1037 340 1037 323 1020 323"/><polygon class="cls-4" points="884 323 884 340 884 357 901 357 901 340 901 323 884 323"/><polygon class="cls-7" points="867 323 867 340 867 357 884 357 884 340 884 323 867 323"/><polygon class="cls-3" points="850 323 850 340 850 357 867 357 867 340 867 323 850 323"/><rect class="cls-5" x="986" y="323" width="17" height="17"/><polygon class="cls-7" points="969 153 969 170 969 187 969 204 969 221 969 238 969 255 969 272 969 289 969 306 969 323 969 340 986 340 986 323 986 306 986 289 986 272 986 255 986 238 986 221 986 204 986 187 986 170 986 153 969 153"/><polygon class="cls-6" points="1003 323 1003 340 986 340 986 357 969 357 969 374 986 374 1003 374 1003 357 1020 357 1020 340 1020 323 1003 323"/><polygon class="cls-4" points="952 153 952 170 952 187 952 204 952 221 952 238 952 255 952 272 952 289 952 306 952 323 952 340 969 340 969 323 969 306 969 289 969 272 969 255 969 238 969 221 969 204 969 187 969 170 969 153 952 153"/><polygon class="cls-4" points="918 306 901 306 901 323 918 323 918 340 935 340 935 323 935 306 918 306"/><polygon class="cls-5" points="935 323 935 340 918 340 918 323 901 323 901 340 901 357 918 357 935 357 952 357 952 340 952 323 935 323"/><polygon class="cls-3" points="952 391 935 391 918 391 901 391 901 408 918 408 935 408 952 408 969 408 969 391 952 391"/><polygon class="cls-8" points="1003 510 1003 493 986 493 986 476 969 476 969 459 952 459 952 442 935 442 935 425 918 425 918 408 901 408 901 391 884 391 884 374 867 374 850 374 850 391 833 391 833 408 850 408 850 425 867 425 867 442 884 442 884 459 901 459 901 476 918 476 918 493 935 493 935 510 952 510 952 527 969 527 969 544 986 544 1003 544 1003 527 1020 527 1020 510 1003 510"/><rect class="cls-1" width="374" height="544"/><rect class="cls-5" x="136" y="85" width="17" height="17"/><rect class="cls-4" x="187" y="85" width="17" height="17"/><rect class="cls-3" x="68" y="85" width="17" height="17"/><rect class="cls-4" x="153" y="119" width="17" height="17"/><rect class="cls-2" x="272" y="119" width="17" height="17"/><polygon class="cls-3" points="221 374 204 374 204 391 221 391 238 391 238 374 221 374"/><polygon class="cls-3" points="102 374 85 374 85 391 102 391 119 391 119 374 102 374"/><rect class="cls-4" x="136" y="340" width="17" height="17"/><rect class="cls-3" x="51" y="340" width="17" height="17"/><rect class="cls-5" x="102" y="340" width="17" height="17"/><rect class="cls-3" x="255" y="340" width="17" height="17"/><polygon class="cls-4" points="119 102 119 119 119 136 136 136 136 119 136 102 119 102"/><rect class="cls-4" x="170" y="102" width="17" height="17"/><polygon class="cls-3" points="51 102 51 119 51 136 68 136 68 119 68 102 51 102"/><polygon class="cls-6" points="102 85 85 85 85 102 102 102 102 119 102 136 119 136 119 119 119 102 119 85 102 85"/><rect class="cls-4" x="153" y="68" width="17" height="17"/><polygon class="cls-6" points="187 68 170 68 170 85 153 85 153 102 136 102 136 119 136 136 153 136 153 119 170 119 170 102 187 102 187 85 204 85 204 68 187 68"/><polygon class="cls-4" points="221 68 204 68 204 85 221 85 238 85 238 68 221 68"/><rect class="cls-3" x="85" y="68" width="17" height="17"/><polygon class="cls-3" points="323 68 323 85 323 102 340 102 340 85 340 68 323 68"/><polygon class="cls-3" points="153 17 136 17 136 34 153 34 170 34 170 17 153 17"/><polygon class="cls-7" points="238 17 221 17 204 17 187 17 170 17 170 34 187 34 204 34 221 34 238 34 255 34 255 17 238 17"/><polygon class="cls-3" points="272 17 255 17 255 34 272 34 289 34 289 17 272 17"/><rect class="cls-4" x="170" y="51" width="17" height="17"/><rect class="cls-5" x="187" y="51" width="17" height="17"/><polygon class="cls-6" points="221 51 204 51 204 68 221 68 238 68 238 51 221 51"/><rect class="cls-3" x="102" y="51" width="17" height="17"/><polygon class="cls-4" points="255 51 238 51 238 68 255 68 272 68 272 51 255 51"/><rect class="cls-3" x="306" y="51" width="17" height="17"/><rect class="cls-2" x="204" y="153" width="17" height="17"/><rect class="cls-7" x="306" y="153" width="17" height="17"/><polygon class="cls-4" points="289 153 272 153 272 170 289 170 306 170 306 153 289 153"/><polygon class="cls-7" points="221 187 204 187 204 204 221 204 238 204 238 187 221 187"/><polygon class="cls-2" points="255 187 238 187 238 204 255 204 272 204 272 187 255 187"/><rect class="cls-3" x="289" y="306" width="17" height="17"/><rect class="cls-3" x="119" y="34" width="17" height="17"/><polygon class="cls-2" points="153 34 136 34 136 51 119 51 119 68 102 68 102 85 119 85 119 102 136 102 136 85 153 85 153 68 170 68 170 51 170 34 153 34"/><polygon class="cls-6" points="187 34 170 34 170 51 187 51 204 51 204 34 187 34"/><polygon class="cls-5" points="221 34 204 34 204 51 221 51 238 51 238 34 221 34"/><rect class="cls-3" x="289" y="34" width="17" height="17"/><rect class="cls-5" x="136" y="170" width="17" height="17"/><rect class="cls-2" x="153" y="170" width="17" height="17"/><polygon class="cls-6" points="255 153 238 153 221 153 221 170 204 170 204 187 221 187 238 187 238 170 255 170 272 170 272 153 255 153"/><polygon class="cls-5" points="51 170 51 187 51 204 68 204 68 187 68 170 51 170"/><polygon class="cls-6" points="68 170 68 187 68 204 85 204 85 187 85 170 68 170"/><polygon class="cls-4" points="85 170 85 187 85 204 102 204 102 187 102 170 85 170"/><rect class="cls-2" x="272" y="170" width="17" height="17"/><polygon class="cls-4" points="255 170 238 170 238 187 255 187 272 187 272 170 255 170"/><polygon class="cls-4" points="306 170 306 187 306 204 323 204 323 187 323 170 306 170"/><polygon class="cls-6" points="289 170 289 187 272 187 272 204 289 204 306 204 306 187 306 170 289 170"/><polygon class="cls-6" points="119 136 119 153 119 170 136 170 136 153 136 136 119 136"/><polygon class="cls-4" points="136 136 136 153 136 170 153 170 153 153 153 136 136 136"/><polygon class="cls-7" points="289 85 289 68 272 68 255 68 238 68 238 85 221 85 204 85 204 102 187 102 187 119 170 119 170 136 153 136 153 153 153 170 170 170 187 170 187 187 204 187 204 170 204 153 221 153 238 153 238 136 255 136 272 136 272 119 289 119 306 119 306 102 306 85 289 85"/><polygon class="cls-3" points="34 136 34 153 34 170 34 187 51 187 51 170 51 153 51 136 34 136"/><polygon class="cls-7" points="85 102 68 102 68 119 68 136 51 136 51 153 51 170 68 170 85 170 85 153 85 136 102 136 102 119 102 102 85 102"/><polygon class="cls-6" points="85 136 85 153 85 170 102 170 102 153 102 136 85 136"/><polygon class="cls-4" points="102 136 102 153 102 170 119 170 119 153 119 136 102 136"/><polygon class="cls-2" points="255 136 238 136 238 153 255 153 272 153 272 136 255 136"/><polygon class="cls-4" points="306 119 306 136 306 153 323 153 323 136 323 119 306 119"/><polygon class="cls-6" points="289 119 289 136 272 136 272 153 289 153 306 153 306 136 306 119 289 119"/><rect class="cls-2" x="153" y="272" width="17" height="17"/><rect class="cls-5" x="187" y="272" width="17" height="17"/><rect class="cls-5" x="272" y="272" width="17" height="17"/><polygon class="cls-4" points="255 272 238 272 238 289 255 289 272 289 272 272 255 272"/><polygon class="cls-3" points="238 0 221 0 204 0 187 0 170 0 170 17 187 17 204 17 221 17 238 17 255 17 255 0 238 0"/><polygon class="cls-4" points="119 170 119 187 119 204 119 221 136 221 136 204 136 187 136 170 119 170"/><polygon class="cls-7" points="136 187 136 204 136 221 153 221 153 204 153 187 136 187"/><polygon class="cls-6" points="170 170 170 187 153 187 153 204 153 221 170 221 170 204 187 204 187 187 187 170 170 170"/><polygon class="cls-4" points="187 187 187 204 170 204 170 221 187 221 204 221 204 204 204 187 187 187"/><rect class="cls-2" x="204" y="204" width="17" height="17"/><rect class="cls-5" x="306" y="204" width="17" height="17"/><polygon class="cls-4" points="289 204 272 204 272 221 289 221 306 221 306 204 289 204"/><rect class="cls-5" x="136" y="221" width="17" height="17"/><rect class="cls-2" x="153" y="221" width="17" height="17"/><rect class="cls-7" x="187" y="221" width="17" height="17"/><polygon class="cls-6" points="255 204 238 204 221 204 221 221 204 221 204 238 221 238 238 238 238 221 255 221 272 221 272 204 255 204"/><rect class="cls-2" x="272" y="221" width="17" height="17"/><polygon class="cls-4" points="255 221 238 221 238 238 255 238 272 238 272 221 255 221"/><rect class="cls-4" x="306" y="221" width="17" height="17"/><polygon class="cls-3" points="340 102 340 119 340 136 340 153 340 170 340 187 340 204 340 221 340 238 357 238 357 221 357 204 357 187 357 170 357 153 357 136 357 119 357 102 340 102"/><polygon class="cls-6" points="323 102 323 85 323 68 306 68 306 51 289 51 289 34 272 34 255 34 238 34 238 51 255 51 272 51 272 68 289 68 289 85 306 85 306 102 306 119 323 119 323 136 323 153 323 170 323 187 323 204 323 221 323 238 340 238 340 221 340 204 340 187 340 170 340 153 340 136 340 119 340 102 323 102"/><rect class="cls-2" x="204" y="255" width="17" height="17"/><polygon class="cls-6" points="255 255 238 255 221 255 221 272 204 272 204 289 221 289 238 289 238 272 255 272 272 272 272 255 255 255"/><polygon class="cls-4" points="289 255 272 255 272 272 289 272 306 272 306 255 289 255"/><polygon class="cls-7" points="136 238 136 221 119 221 119 238 119 255 119 272 119 289 136 289 136 272 153 272 153 255 153 238 136 238"/><polygon class="cls-6" points="170 221 170 238 153 238 153 255 153 272 170 272 170 255 187 255 187 238 187 221 170 221"/><rect class="cls-5" x="204" y="238" width="17" height="17"/><rect class="cls-5" x="221" y="238" width="17" height="17"/><polygon class="cls-2" points="255 238 238 238 238 255 255 255 272 255 272 238 255 238"/><polygon class="cls-6" points="306 238 306 221 289 221 289 238 272 238 272 255 289 255 306 255 306 272 323 272 323 255 323 238 306 238"/><polygon class="cls-3" points="323 238 323 255 323 272 340 272 340 255 340 238 323 238"/><polygon class="cls-4" points="170 357 153 357 153 374 170 374 187 374 187 357 170 357"/><rect class="cls-3" x="238" y="357" width="17" height="17"/><rect class="cls-3" x="68" y="357" width="17" height="17"/><polygon class="cls-3" points="187 391 170 391 153 391 136 391 119 391 119 408 136 408 153 408 170 408 187 408 204 408 204 391 187 391"/><polygon class="cls-4" points="119 306 119 323 119 340 136 340 136 323 136 306 119 306"/><polygon class="cls-3" points="34 306 34 323 34 340 51 340 51 323 51 306 34 306"/><rect class="cls-4" x="85" y="323" width="17" height="17"/><rect class="cls-3" x="272" y="323" width="17" height="17"/><polygon class="cls-6" points="170 272 170 289 153 289 153 306 153 323 170 323 170 306 187 306 187 289 187 272 170 272"/><polygon class="cls-4" points="187 238 187 255 170 255 170 272 187 272 204 272 204 255 204 238 187 238"/><polygon class="cls-4" points="187 289 187 306 170 306 170 323 187 323 204 323 204 306 204 289 187 289"/><polygon class="cls-3" points="17 187 17 204 17 221 17 238 17 255 17 272 17 289 17 306 34 306 34 289 34 272 34 255 34 238 34 221 34 204 34 187 17 187"/><polygon class="cls-6" points="255 323 238 323 238 340 221 340 221 357 204 357 187 357 187 374 170 374 153 374 153 357 136 357 136 340 119 340 119 357 102 357 102 340 85 340 85 323 68 323 68 306 68 289 68 272 68 255 68 238 68 221 68 204 51 204 51 187 34 187 34 204 34 221 34 238 34 255 34 272 34 289 34 306 51 306 51 323 51 340 68 340 68 357 85 357 85 374 102 374 119 374 119 391 136 391 153 391 170 391 187 391 204 391 204 374 221 374 238 374 238 357 255 357 255 340 272 340 272 323 255 323"/><polygon class="cls-4" points="68 204 68 221 68 238 68 255 68 272 68 289 68 306 68 323 85 323 85 306 85 289 85 272 85 255 85 238 85 221 85 204 68 204"/><polygon class="cls-6" points="102 170 102 187 102 204 85 204 85 221 85 238 85 255 85 272 85 289 85 306 85 323 102 323 102 340 119 340 119 323 119 306 102 306 102 289 102 272 102 255 102 238 102 221 119 221 119 204 119 187 119 170 102 170"/><polygon class="cls-4" points="102 221 102 238 102 255 102 272 102 289 102 306 119 306 119 289 119 272 119 255 119 238 119 221 102 221"/><polygon class="cls-5" points="255 289 238 289 221 289 204 289 204 306 204 323 187 323 170 323 153 323 153 306 153 289 153 272 136 272 136 289 119 289 119 306 136 306 136 323 136 340 153 340 153 357 170 357 187 357 204 357 221 357 221 340 238 340 238 323 255 323 272 323 272 306 272 289 255 289"/><polygon class="cls-3" points="306 272 306 289 306 306 323 306 323 289 323 272 306 272"/><polygon class="cls-6" points="289 272 289 289 272 289 272 306 272 323 289 323 289 306 306 306 306 289 306 272 289 272"/><polygon class="cls-8" points="340 408 323 408 323 391 306 391 289 391 289 408 272 408 255 408 255 425 238 425 221 425 221 442 204 442 187 442 187 459 170 459 153 459 153 476 136 476 119 476 119 493 102 493 85 493 85 510 102 510 119 510 119 527 136 527 153 527 153 510 170 510 187 510 187 493 204 493 221 493 221 476 238 476 255 476 255 459 272 459 289 459 289 442 306 442 323 442 323 425 340 425 357 425 357 408 340 408"/></g></g></svg>