<svg xmlns="http://www.w3.org/2000/svg" viewBox="0 0 379.75 326.56"><defs><style>.cls-1{fill:#1f2933;}.cls-2{fill:#06a4b0;}.cls-3{fill:#fff;}</style></defs><g id="Layer_2" data-name="Layer 2"><g id="Layer_1-2" data-name="Layer 1"><path class="cls-1" d="M378.07,46.19v107l-87.65,15.47v0L66,208.07,0,161.88V55L312.12,0Zm-7.69,96.37V52.77l-55.31,9.76v41.29ZM315.07,54.71,364.43,46,315.07,11.45ZM70.71,199.42l293.7-51.65-54.09-37.89L70.71,152.14ZM307.38,102.6V8.65L7.69,61.49v93.95ZM63,196.62V153.5l-49.2,8.67Z"/><polygon class="cls-2" points="370.38 52.77 370.38 142.56 315.07 103.82 315.07 62.52 370.38 52.77"/><polygon class="cls-2" points="364.41 147.77 70.71 199.42 70.71 152.14 310.32 109.88 364.41 147.77"/><polygon class="cls-3" points="307.38 8.65 307.38 102.6 7.69 155.44 7.69 61.49 307.38 8.65"/><path class="cls-1" d="M379.75,283.39v0a1.33,1.33,0,0,1,0,.28,2.1,2.1,0,0,1-.05.43,1.64,1.64,0,0,1-.07.28,3.84,3.84,0,0,1-.13.41,1.92,1.92,0,0,1-.12.25c-.08.14-.14.27-.23.4a.45.45,0,0,1-.06.12l-.08.09a3.85,3.85,0,0,1-.51.56l-.07.07a3.41,3.41,0,0,1-.67.45,1.43,1.43,0,0,1-.21.11,5.49,5.49,0,0,1-.57.2.91.91,0,0,1-.25.07.34.34,0,0,0-.12,0L153.68,326.5a3.07,3.07,0,0,1-.68.06,3.25,3.25,0,0,1-.69-.08l-.21,0c-.16-.05-.3-.08-.45-.14l-.23-.09c-.15-.06-.29-.16-.43-.23l-.15-.1h0l-63-44.11a3.41,3.41,0,0,1-.66-.6A1.29,1.29,0,0,1,87,281l-.34-.51c0-.09-.09-.17-.13-.26a4.65,4.65,0,0,1-.2-.52,1.77,1.77,0,0,1-.08-.31l0-.14c0-.15,0-.31,0-.47s0-.13,0-.19V172.51a3.84,3.84,0,0,1,3.17-3.78l222.9-39.18h.33l.33,0H313c.12,0,.24,0,.38,0a2.2,2.2,0,0,1,.37.06l.26.08a2.79,2.79,0,0,1,.47.14l.2.1c.15.1.3.17.44.27h0l63,44.11a3.31,3.31,0,0,1,.66.58l.14.19a2.3,2.3,0,0,1,.35.51,1.41,1.41,0,0,1,.13.24,2.7,2.7,0,0,1,.2.54l.09.29c0,.05,0,.1,0,.14s0,.33.05.48,0,.12,0,.2ZM372.06,276v-94l-55.33,9.75v45.47Zm-55.33-92,49.36-8.71-49.36-34.55ZM156.85,318.13l209.24-36.92L312,243.33,156.85,270.7ZM309,236V137.92L93.85,175.74V274ZM149.16,315.33V272.05L99.8,280.76Z"/><polygon class="cls-2" points="372.06 182.05 372.06 276.01 316.73 237.27 316.73 191.8 372.06 182.05"/><polygon class="cls-2" points="366.09 281.21 156.85 318.13 156.85 270.7 311.99 243.33 366.09 281.21"/><polygon class="cls-3" points="309.04 137.92 309.04 236.03 93.85 274.01 93.85 175.74 309.04 137.92"/><path class="cls-1" d="M127.9,230.93,144.58,228v11.78l-30.6,5.4V191.63l13.92-2.45Z"/><path class="cls-1" d="M162.76,227.27l-3.69,9.95-14.77,2.6,20.59-57.17L180.08,180l20.17,50-14.84,2.62-3.48-8.69Zm9.73-29.41-.15,0-5.75,18.06,11.58-2Z"/><path class="cls-1" d="M204.58,229.2V175.66l19.88-3.51c9.51-1.68,15.9.89,15.9,11.11,0,4.83-1.56,9-5.89,12v.14c7.67-.36,10.93,4.25,10.93,11.71,0,11.22-9.58,16.6-19.38,18.33Zm13.92-35,1.56-.27c3.69-.65,7.52-2,7.52-6.51,0-4.9-4.33-4.42-8.09-3.76l-1,.17Zm0,21.87,1.77-.31c4.12-.73,11.08-1.74,11.08-7.64,0-6.46-6.89-4.6-11.44-3.8l-1.41.25Z"/><path class="cls-1" d="M282,175.77a12.76,12.76,0,0,0-9.23-1.92c-2.56.45-6,2.54-6,5.53s3.76,3.66,6.17,4l3.55.44c7.46.89,13.21,3.63,13.21,12.3,0,5.32-1.28,11-5.54,15.39a28.13,28.13,0,0,1-15.19,7.72,29.47,29.47,0,0,1-18.82-2.79l6-12.27c3.48,2.44,7.59,4.2,12.35,3.36,3.27-.58,6.74-2.82,6.74-6.59s-5.46-4.29-8.44-4.61c-8.74-.95-14.49-2.21-14.49-12.57,0-10.87,7.74-19.33,18.46-21.22A33.57,33.57,0,0,1,287.58,164Z"/><path class="cls-1" d="M43.17,87.15v8.94L58.43,93.4v11.79l-15.26,2.69v21l-13.92,2.45V77.81L60,72.39V84.18Z"/><path class="cls-1" d="M77.46,113.55l-3.69,10L59,126.11,79.59,68.94l15.2-2.68,20.16,50-14.84,2.62-3.48-8.69Zm9.73-29.41-.14,0-5.75,18,11.57-2Z"/><path class="cls-1" d="M119.28,115.48V61.94l19.88-3.51c9.51-1.67,15.9.89,15.9,11.12,0,4.83-1.56,9-5.89,12v.14c7.67-.35,10.93,4.25,10.93,11.71,0,11.22-9.58,16.6-19.38,18.33Zm13.92-35,1.56-.27c3.69-.65,7.53-2,7.53-6.51,0-4.9-4.34-4.42-8.1-3.76l-1,.18Zm0,21.87,1.77-.31c4.12-.73,11.08-1.74,11.08-7.63,0-6.46-6.89-4.61-11.43-3.81l-1.42.25Z"/><path class="cls-1" d="M181.26,92.76,198,89.82v11.79L167.35,107V53.46L181.26,51Z"/><path class="cls-1" d="M216.41,56.6v8.95l15.69-2.77V74.57l-15.69,2.76v9.24L233,83.65V95.44l-30.46,5.37V47.27L233,41.9V53.68Z"/><path class="cls-1" d="M241.54,40.38l19.74-3.48c14.91-2.63,27.19,6.92,27.19,22s-12.35,28.94-27.19,31.56l-19.74,3.48Zm13.92,39.3,3.12-.55c8.31-1.47,15.41-7.26,15.41-17.7,0-9.59-6.32-13.87-15.27-12.29l-3.26.57Z"/></g></g></svg>